<svg xmlns="http://www.w3.org/2000/svg" width="26" height="26" viewBox="0 0 26 26"><g transform="translate(0.5 0.5)"><circle cx="13" cy="13" r="13" transform="translate(-0.5 -0.5)" fill="#0ac18e"/><path d="M202.975,150.8c-.639-1.45-2.109-1.76-3.907-1.46l-.578-2.241-1.363.352.568,2.235c-.358.09-.727.168-1.091.271l-.568-2.222-1.363.352.578,2.241c-.294.084-2.751.714-2.751.714l.375,1.46s1-.281.991-.258a.725.725,0,0,1,.94.394l1.589,6.142a.5.5,0,0,1-.394.584c.023.013-.991.255-.991.255l.149,1.7,2.754-.7.584,2.267,1.363-.352-.584-2.283q.562-.131,1.095-.271l.581,2.27,1.363-.352-.584-2.264c2.1-.51,3.581-1.834,3.278-3.859a3.148,3.148,0,0,0-2.635-2.335,2.251,2.251,0,0,0,.6-2.638Zm-.656,5.344c.271,2.005-2.516,2.251-3.436,2.493l-.8-3C199.007,155.4,201.861,154.379,202.32,156.145Zm-1.679-4.085c.287,1.783-2.1,1.989-2.864,2.186l-.73-2.722C197.818,151.333,200.056,150.41,200.641,152.06Z" transform="translate(-186.23 -142.296)" fill="#fff"/></g></svg>