<svg xmlns="http://www.w3.org/2000/svg" width="23.992" height="23.995" viewBox="0 0 23.992 23.995"><path d="M23.633,14.9A11.993,11.993,0,1,1,14.9.36,11.994,11.994,0,0,1,23.633,14.9h0Z" transform="translate(0 -0.001)" fill="#f7931a"/><path d="M1006.919,718.858c.239-1.6-.977-2.455-2.639-3.027l.539-2.163-1.317-.328-.525,2.106c-.346-.086-.7-.168-1.055-.248l.529-2.12-1.316-.328-.539,2.162c-.286-.065-.568-.13-.841-.2l0-.007-1.815-.453-.35,1.406s.977.224.956.238a.7.7,0,0,1,.614.766l-.614,2.464a1.061,1.061,0,0,1,.137.044l-.139-.034-.861,3.451a.479.479,0,0,1-.6.313c.013.019-.957-.239-.957-.239l-.654,1.507,1.713.427c.319.08.631.164.939.242l-.545,2.188,1.315.328.54-2.164c.359.1.708.187,1.049.272l-.538,2.154,1.317.328.545-2.183c2.245.425,3.933.254,4.643-1.777a2.31,2.31,0,0,0-1.21-3.193,2.1,2.1,0,0,0,1.681-1.933h0Zm-3.008,4.218c-.407,1.635-3.159.751-4.052.529l.723-2.9c.892.223,3.754.664,3.329,2.369Zm.407-4.242c-.371,1.487-2.662.732-3.405.546l.655-2.628c.743.185,3.136.531,2.75,2.082Z" transform="translate(-989.632 -708.57)" fill="#fff"/></svg>