<svg xmlns="http://www.w3.org/2000/svg" width="23.995" height="23.995" viewBox="0 0 23.995 23.995"><ellipse cx="10.699" cy="10.699" rx="10.699" ry="10.699" transform="translate(1.299 1.299)" fill="#fff"/><path d="M12,0a12,12,0,1,0,12,12h0A11.962,11.962,0,0,0,12.067,0Zm.2,12.4-1.249,4.212h6.681a.337.337,0,0,1,.349.325v.11l-.581,2a.433.433,0,0,1-.436.32H6.739l1.714-5.839-1.917.581.436-1.336L8.889,12.2,11.3,4.009a.439.439,0,0,1,.436-.32h2.585a.337.337,0,0,1,.349.325v.11l-2.033,6.914,1.917-.581-.407,1.394Z" transform="translate(0 0)" fill="#345d9d"/></svg>